HIERARCHY
ROOT Hips
{
  OFFSET 5.84602e-005 68.8428 3.50346
  CHANNELS 6 Xposition Yposition Zposition Zrotation Xrotation Yrotation
  JOINT Spine
  {
    OFFSET 0 8.597 -4.6522
    CHANNELS 3 Zrotation Xrotation Yrotation
    JOINT Spine1
    {
      OFFSET 0 7.8454 0.4098
      CHANNELS 3 Zrotation Xrotation Yrotation
      JOINT Spine2
      {
        OFFSET 0 9.7078 -2.1609
        CHANNELS 3 Zrotation Xrotation Yrotation
        JOINT Neck
        {
          OFFSET 0 21.8761 -0.4549
          CHANNELS 3 Zrotation Xrotation Yrotation
          JOINT Head
          {
            OFFSET 0 12.3537 3.3602
            CHANNELS 3 Zrotation Xrotation Yrotation
            End Site
            {
              OFFSET 0.0001 18.9506 0.5657
            }
          }
        }
        JOINT LeftShoulder
        {
          OFFSET 2.2086 21.1115 7.2329
          CHANNELS 3 Zrotation Xrotation Yrotation
          JOINT LeftArm
          {
            OFFSET 13.1193 3.0282 -4.8998
            CHANNELS 3 Zrotation Xrotation Yrotation
            JOINT LeftForeArm
            {
              OFFSET 27.4081 -0.0973053 -0.2375
              CHANNELS 3 Zrotation Xrotation Yrotation
              JOINT LeftHand
              {
                OFFSET 22.8641 0.0662994 -0.1369
                CHANNELS 3 Zrotation Xrotation Yrotation
                JOINT LeftHandIndex1
                {
                  OFFSET 8.8614 0.775009 2.4612
                  CHANNELS 3 Zrotation Xrotation Yrotation
                  JOINT LeftHandIndex2
                  {
                    OFFSET 3.3146 -0.808304 0.5841
                    CHANNELS 3 Zrotation Xrotation Yrotation
                    JOINT LeftHandIndex3
                    {
                      OFFSET 2.2628 -0.552002 0.3989
                      CHANNELS 3 Zrotation Xrotation Yrotation
                      End Site
                      {
                        OFFSET 1.6102 -0.4807 0.2612
                      }
                    }
                  }
                }
                JOINT LeftHandMiddle1
                {
                  OFFSET 8.9937 0.895004 0.2143
                  CHANNELS 3 Zrotation Xrotation Yrotation
                  JOINT LeftHandMiddle2
                  {
                    OFFSET 4.0984 0.0113983 -0.0242
                    CHANNELS 3 Zrotation Xrotation Yrotation
                    JOINT LeftHandMiddle3
                    {
                      OFFSET 2.2716 0.00689697 -0.0138001
                      CHANNELS 3 Zrotation Xrotation Yrotation
                      End Site
                      {
                        OFFSET 2.0404 -0.1441 0.0027
                      }
                    }
                  }
                }
                JOINT LeftHandRing1
                {
                  OFFSET 8.5234 0.597198 -2.0164
                  CHANNELS 3 Zrotation Xrotation Yrotation
                  JOINT LeftHandRing2
                  {
                    OFFSET 3.7188 -0.188293 -0.2328
                    CHANNELS 3 Zrotation Xrotation Yrotation
                    JOINT LeftHandRing3
                    {
                      OFFSET 2.1191 -0.106598 -0.1332
                      CHANNELS 3 Zrotation Xrotation Yrotation
                      End Site
                      {
                        OFFSET 1.8737 -0.2304 -0.0886
                      }
                    }
                  }
                }
                JOINT LeftHandPinky1
                {
                  OFFSET 7.9094 -0.601089 -3.4825
                  CHANNELS 3 Zrotation Xrotation Yrotation
                  JOINT LeftHandPinky2
                  {
                    OFFSET 2.2874 -0.477005 -0.6314
                    CHANNELS 3 Zrotation Xrotation Yrotation
                    JOINT LeftHandPinky3
                    {
                      OFFSET 1.6774 -0.349396 -0.4633
                      CHANNELS 3 Zrotation Xrotation Yrotation
                      End Site
                      {
                        OFFSET 1.4888 -0.4091 -0.3416
                      }
                    }
                  }
                }
                JOINT LeftHandThumb1
                {
                  OFFSET 1.833 -1.3875 1.3896
                  CHANNELS 3 Zrotation Xrotation Yrotation
                  JOINT LeftHandThumb2
                  {
                    OFFSET 3.4129 -1.121 2.5732
                    CHANNELS 3 Zrotation Xrotation Yrotation
                    JOINT LeftHandThumb3
                    {
                      OFFSET 2.2474 -0.804199 1.6192
                      CHANNELS 3 Zrotation Xrotation Yrotation
                      End Site
                      {
                        OFFSET 1.6527 -0.5689 1.1317
                      }
                    }
                  }
                }
              }
            }
          }
        }
        JOINT RightShoulder
        {
          OFFSET -2.2086 21.1115 7.2329
          CHANNELS 3 Zrotation Xrotation Yrotation
          JOINT RightArm
          {
            OFFSET -13.1216 3.0287 -4.9007
            CHANNELS 3 Zrotation Xrotation Yrotation
            JOINT RightForeArm
            {
              OFFSET -27.4081 -0.0973053 -0.2375
              CHANNELS 3 Zrotation Xrotation Yrotation
              JOINT RightHand
              {
                OFFSET -22.8641 0.0664063 -0.1369
                CHANNELS 3 Zrotation Xrotation Yrotation
                JOINT RightHandIndex1
                {
                  OFFSET -8.8614 0.774994 2.4612
                  CHANNELS 3 Zrotation Xrotation Yrotation
                  JOINT RightHandIndex2
                  {
                    OFFSET -3.3146 -0.808304 0.5841
                    CHANNELS 3 Zrotation Xrotation Yrotation
                    JOINT RightHandIndex3
                    {
                      OFFSET -2.2628 -0.552002 0.3989
                      CHANNELS 3 Zrotation Xrotation Yrotation
                      End Site
                      {
                        OFFSET -1.6102 -0.4807 0.2612
                      }
                    }
                  }
                }
                JOINT RightHandMiddle1
                {
                  OFFSET -8.9937 0.894989 0.2143
                  CHANNELS 3 Zrotation Xrotation Yrotation
                  JOINT RightHandMiddle2
                  {
                    OFFSET -4.0984 0.0113983 -0.0242
                    CHANNELS 3 Zrotation Xrotation Yrotation
                    JOINT RightHandMiddle3
                    {
                      OFFSET -2.2716 0.00691223 -0.0138001
                      CHANNELS 3 Zrotation Xrotation Yrotation
                      End Site
                      {
                        OFFSET -2.0404 -0.1441 0.0027
                      }
                    }
                  }
                }
                JOINT RightHandRing1
                {
                  OFFSET -8.5234 0.597198 -2.0164
                  CHANNELS 3 Zrotation Xrotation Yrotation
                  JOINT RightHandRing2
                  {
                    OFFSET -3.7188 -0.188309 -0.2328
                    CHANNELS 3 Zrotation Xrotation Yrotation
                    JOINT RightHandRing3
                    {
                      OFFSET -2.1191 -0.106598 -0.1332
                      CHANNELS 3 Zrotation Xrotation Yrotation
                      End Site
                      {
                        OFFSET -1.8737 -0.2304 -0.0886
                      }
                    }
                  }
                }
                JOINT RightHandPinky1
                {
                  OFFSET -7.9094 -0.601105 -3.4825
                  CHANNELS 3 Zrotation Xrotation Yrotation
                  JOINT RightHandPinky2
                  {
                    OFFSET -2.2874 -0.477005 -0.6314
                    CHANNELS 3 Zrotation Xrotation Yrotation
                    JOINT RightHandPinky3
                    {
                      OFFSET -1.6774 -0.349396 -0.4633
                      CHANNELS 3 Zrotation Xrotation Yrotation
                      End Site
                      {
                        OFFSET -1.4888 -0.4091 -0.3416
                      }
                    }
                  }
                }
                JOINT RightHandThumb1
                {
                  OFFSET -1.833 -1.38751 1.3896
                  CHANNELS 3 Zrotation Xrotation Yrotation
                  JOINT RightHandThumb2
                  {
                    OFFSET -3.41299 -1.12099 2.5732
                    CHANNELS 3 Zrotation Xrotation Yrotation
                    JOINT RightHandThumb3
                    {
                      OFFSET -2.24741 -0.804108 1.6192
                      CHANNELS 3 Zrotation Xrotation Yrotation
                      End Site
                      {
                        OFFSET -1.6527 -0.5689 1.1317
                      }
                    }
                  }
                }
              }
            }
          }
        }
      }
    }
  }
  JOINT RightUpLeg
  {
    OFFSET -9.1966 3.8861 -0.7581
    CHANNELS 3 Zrotation Xrotation Yrotation
    JOINT RightLeg
    {
      OFFSET -0.7359 -41.0265 0
      CHANNELS 3 Zrotation Xrotation Yrotation
      JOINT RightFoot
      {
        OFFSET 0 -40.2855 0
        CHANNELS 3 Zrotation Xrotation Yrotation
        JOINT RightToeBase
        {
          OFFSET 0 -5.6122 11.7359
          CHANNELS 3 Zrotation Xrotation Yrotation
          End Site
          {
            OFFSET 0 0 7.8731
          }
        }
      }
    }
  }
  JOINT LeftUpLeg
  {
    OFFSET 9.1965 3.8864 -0.7581
    CHANNELS 3 Zrotation Xrotation Yrotation
    JOINT LeftLeg
    {
      OFFSET 0.7359 -41.0268 0
      CHANNELS 3 Zrotation Xrotation Yrotation
      JOINT LeftFoot
      {
        OFFSET 0 -40.2855 0
        CHANNELS 3 Zrotation Xrotation Yrotation
        JOINT LeftToeBase
        {
          OFFSET 0 -5.6122 11.7359
          CHANNELS 3 Zrotation Xrotation Yrotation
          End Site
          {
            OFFSET 0 0 7.8731
          }
        }
      }
    }
  }
}
MOTION
Frames:	4
Frame Time:	0.0333333
5.84602e-005 68.8428 3.50346 0 0 -0 0 0 -0 0 0 -0 0 0 -0 0 0 -0 0 0 -0 0 0 -0 0 0 -0 0 0 -0 0 0 -0 0 0 -0 0 0 -0 0 0 -0 0 0 -0 -0.0146107 -8.87603e-005 -2.63497e-007 2.99804e-018 -2.42657e-020 -1.42182e-022 0 0 -0 -0.0187562 -0.001176 5.858e-005 5.06224e-018 3.88251e-019 1.21329e-020 0 0 -0 -0.012269 -0.00324817 0.000675346 -1.74678e-018 3.88251e-019 -0 0 0 -0 0 0 -0 0 0 -0 0 0 -0 0 0 -0 0 0 -0 0 0 -0 0 0 -0 0 0 -0 0 0 -0 0 0 -0 0.0149955 -9.10982e-005 2.64101e-007 -9.69331e-018 1.21329e-020 -4.7394e-023 0 0 -0 0.0189956 -0.00119102 -5.96516e-005 -5.41541e-019 0 2.42657e-020 0 0 -0 0.0122698 -0.00324857 -0.000673756 -2.00796e-019 0 -1.94126e-019 0 0 -0 0 0 -0 0 0 -0 3.39842 1.33031 -0.0637918 -5.65207e-008 0.834868 -0.000436188 -3.39935 -2.16518 -0.0642563 -8.89002e-024 -1.18485e-023 -1.48106e-024 -3.39844 1.35642 0.0640283 -3.18788e-007 0.782166 -0.000588827 3.39931 -2.13858 0.0634662 1.1399e-023 0 -0 
2.01071 53.7205 -8.15919 0 0 -0 -0.00303759 0.418092 -0.0227013 -0.00590975 0.836184 -0.0453823 -0.00590975 0.836184 -0.0453823 -0.0320902 -0.0158234 0.0361353 9.84494e-010 -1.79513e-007 1.07932e-008 -2.0343 -0.0495799 2.72967e-006 -6.05465 -0.1125 -9.91433 -1.13032 -16.4858 -3.97726 -1.77951 -1.94339e-007 7.96941e-007 1.19271e-015 3.18055e-015 1.59028e-015 1.59028e-015 3.18055e-015 -0 2.38542e-015 3.18055e-015 -1.59028e-015 1.19271e-015 3.18055e-015 1.59028e-015 -0.0146398 -8.91652e-005 -3.26472e-007 1.19271e-015 6.36111e-015 -0 1.19271e-015 3.18055e-015 1.59028e-015 -0.018824 -0.00117972 5.97851e-005 -2.38542e-015 -1.59028e-015 1.59028e-015 1.19271e-015 3.18055e-015 1.59028e-015 -0.0123425 -0.00327009 0.000681097 -1.98785e-015 -1.59028e-015 -1.59028e-015 1.19271e-015 3.18055e-015 1.59028e-015 1.59028e-015 3.18055e-015 -0 2.38542e-015 3.18055e-015 -1.59028e-015 2.03342 -0.0496424 1.30936e-005 6.0535 -0.113126 9.91341 -7.29763e-007 2.29383e-007 3.81259 1.77862 1.99379e-007 4.53751e-006 8.57075e-007 5.91679e-009 -7.7571e-010 -8.57075e-007 -5.91679e-009 7.75707e-010 8.57075e-007 5.91679e-009 -7.7571e-010 8.57075e-007 5.91679e-009 -7.7571e-010 0.0149903 -9.12483e-005 -2.09949e-006 8.57065e-007 5.91677e-009 -7.77161e-010 8.57075e-007 5.91679e-009 -7.7571e-010 0.0190885 -0.00119696 -5.9576e-005 8.57063e-007 5.9179e-009 -7.856e-010 8.57075e-007 5.91679e-009 -7.7571e-010 0.0122358 -0.00323963 -0.000675271 8.57067e-007 5.9239e-009 -8.00115e-010 8.57075e-007 5.91679e-009 -7.7571e-010 -8.57075e-007 -5.91679e-009 7.75707e-010 8.57075e-007 5.91679e-009 -7.7571e-010 2.11238 -12.4953 -1.63969 0.97298 40.639 -0.976422 -5.53841 10.1804 -0.259579 1.84e-007 5.1525e-011 1.20554e-007 -2.11305 -12.495 1.63846 -0.974736 40.6388 0.977228 5.53738 10.1804 0.259161 2.17398e-007 3.22369e-006 9.92703e-009 
4.15055 37.553 -20.5765 0 0 -0 -0.00510037 0.862971 -0.0469764 -0.00949464 1.72595 -0.0938919 -0.00949464 1.72595 -0.0938918 -0.0892483 -0.0435741 0.100527 4.97159e-010 1.31301e-011 -1.33309e-008 -4.19932 -0.102005 7.71053e-007 -12.5402 -0.220868 -20.4658 -5.29956 -33.7436 -9.48037 -3.67336 -1.40222e-005 -4.77337e-006 -1.55295e-006 -3.29625e-007 4.73413e-007 -5.13225e-006 -5.74987e-007 -1.32707e-007 -1.55295e-006 -3.29625e-007 4.73413e-007 -1.55295e-006 -3.29625e-007 4.73413e-007 -0.0146571 -8.82938e-005 -1.72545e-006 -1.55289e-006 -3.29686e-007 4.73372e-007 -1.55295e-006 -3.29625e-007 4.73413e-007 -0.0187554 -0.00118029 5.72503e-005 -1.55287e-006 -3.29698e-007 4.73375e-007 -1.55295e-006 -3.29625e-007 4.73413e-007 -0.0123062 -0.00325252 0.000679368 -1.55289e-006 -3.29655e-007 4.73419e-007 -1.55295e-006 -3.29625e-007 4.73413e-007 -5.13225e-006 -5.74987e-007 -1.32707e-007 -1.55295e-006 -3.29625e-007 4.73413e-007 4.19748 -0.102133 -5.11904e-006 12.538 -0.222101 20.4639 -2.34775e-006 -1.09216e-007 7.87015 3.67153 -1.61378e-006 4.02916e-006 -8.47646e-007 3.59277e-007 1.59273e-006 1.76508e-006 -1.97634e-007 -1.71854e-006 -2.49484e-006 8.00653e-007 1.70044e-006 -8.47646e-007 3.59277e-007 1.59273e-006 0.0149269 -9.00815e-005 -1.53323e-006 -1.665e-006 6.05668e-007 1.64171e-006 -8.47646e-007 3.59277e-007 1.59273e-006 0.0189017 -0.00118562 -5.79769e-005 -1.66499e-006 6.05725e-007 1.6417e-006 -8.47646e-007 3.59277e-007 1.59273e-006 0.0122946 -0.00325342 -0.000678357 -1.66495e-006 6.05623e-007 1.64177e-006 -8.47646e-007 3.59277e-007 1.59273e-006 1.76508e-006 -1.97634e-007 -1.71854e-006 -2.49484e-006 8.00653e-007 1.70044e-006 0.422867 -26.1319 -3.79954 -4.32252 80.8229 4.83271 -6.86702 24.5728 -2.20843 3.96411e-007 -6.16453e-006 -1.18051e-008 -0.422692 -26.0308 3.79956 4.26768 80.7228 -4.7883 6.86521 24.5726 2.20733 -3.97569e-016 1.59028e-015 -9.93923e-017 
6.11813 22.6825 -32.0016 0 0 -0 -0.00592916 1.27206 -0.0694005 -0.0103205 2.54414 -0.138721 -0.0103205 2.54414 -0.138721 -0.11293 -0.0549666 0.12723 2.67026e-008 -4.26206e-007 1.42681e-008 -6.19005 -0.150392 1.53265e-006 -18.5381 -0.300436 -30.1681 -13.6089 -48.8888 -17.813 -5.41475 1.72016e-006 4.37935e-006 -2.67716e-008 -1.18231e-007 3.14233e-007 1.37956e-006 -1.29667e-006 2.72801e-006 2.67717e-008 1.18231e-007 -3.14233e-007 -2.67716e-008 -1.18231e-007 3.14233e-007 -0.0145721 -8.81213e-005 1.45118e-006 -6.8973e-007 6.4851e-007 -1.36392e-006 -2.67716e-008 -1.18231e-007 3.14233e-007 -0.0186522 -0.00116931 6.04527e-005 -6.89728e-007 6.48562e-007 -1.36389e-006 -2.67716e-008 -1.18231e-007 3.14233e-007 -0.0124295 -0.00328903 0.00069208 2.58379e-008 1.1802e-007 -3.14169e-007 -2.67716e-008 -1.18231e-007 3.14233e-007 1.37956e-006 -1.29667e-006 2.72801e-006 2.67717e-008 1.18231e-007 -3.14233e-007 6.18735 -0.150581 -4.69592e-006 18.5352 -0.302125 30.1653 -1.80448e-006 -1.65666e-008 11.6011 5.41205 3.88931e-007 -1.62699e-007 2.38154e-007 -1.15228e-007 -3.31502e-006 -1.07106e-007 -2.8996e-007 8.32925e-008 3.09558e-007 7.80789e-008 -3.37055e-006 2.38154e-007 -1.15228e-007 -3.31502e-006 0.014979 -9.10306e-005 -2.68739e-006 3.09707e-007 7.76374e-008 -3.37056e-006 2.38154e-007 -1.15228e-007 -3.31502e-006 0.0189854 -0.00119141 -6.32762e-005 3.09715e-007 7.75086e-008 -3.37056e-006 2.38154e-007 -1.15228e-007 -3.31502e-006 0.0122994 -0.00325742 -0.000680213 3.09586e-007 7.76861e-008 -3.37057e-006 2.38154e-007 -1.15228e-007 -3.31502e-006 -1.07106e-007 -2.8996e-007 8.32925e-008 3.09558e-007 7.80789e-008 -3.37055e-006 -1.69059 -38.588 -7.10412 -173.254 62.2847 172.625 -7.08541 38.0332 -4.48361 -8.82781e-032 6.36111e-015 7.95139e-016 1.68497 -38.6019 7.09817 173.261 62.271 -172.633 7.08333 38.0331 4.48166 7.95139e-016 0 -1.19271e-015 
